<svg width="28" height="28" viewBox="0 0 28 28" fill="none" xmlns="http://www.w3.org/2000/svg">
<mask id="mask0_37_609" style="mask-type:alpha" maskUnits="userSpaceOnUse" x="0" y="0" width="28" height="28">
<rect width="28" height="28" fill="#D9D9D9"/>
</mask>
<g mask="url(#mask0_37_609)">
<path d="M14 15.2294L8.08151 21.1482C7.91993 21.3096 7.71683 21.3922 7.47222 21.3961C7.22781 21.3998 7.02101 21.3172 6.85185 21.1482C6.68287 20.979 6.59839 20.7741 6.59839 20.5333C6.59839 20.2926 6.68287 20.0877 6.85185 19.9185L12.7706 14L6.85185 8.08151C6.69046 7.91993 6.60782 7.71683 6.60393 7.47222C6.60024 7.22781 6.68287 7.02101 6.85185 6.85185C7.02101 6.68287 7.22596 6.59839 7.46668 6.59839C7.7074 6.59839 7.91235 6.68287 8.08151 6.85185L14 12.7706L19.9185 6.85185C20.0801 6.69046 20.2832 6.60782 20.5278 6.60393C20.7722 6.60024 20.979 6.68287 21.1482 6.85185C21.3172 7.02101 21.4016 7.22596 21.4016 7.46668C21.4016 7.7074 21.3172 7.91235 21.1482 8.08151L15.2294 14L21.1482 19.9185C21.3096 20.0801 21.3922 20.2832 21.3961 20.5278C21.3998 20.7722 21.3172 20.979 21.1482 21.1482C20.979 21.3172 20.7741 21.4016 20.5333 21.4016C20.2926 21.4016 20.0877 21.3172 19.9185 21.1482L14 15.2294Z" fill="white"/>
</g>
</svg>
