<svg width="351" height="221" viewBox="0 0 351 221" fill="none" xmlns="http://www.w3.org/2000/svg">
<g clip-path="url(#clip0_55_1716)">
<path d="M351 0H0V221H351V0Z" fill="#F2F2F4"/>
<path d="M351 221V207.192C351 202.026 348.67 197.165 344.618 193.924L175.5 58.6768L6.38243 193.924C2.36386 197.131 0 202.026 0 207.192V221H351Z" fill="#F8F8FA"/>
<g style="mix-blend-mode:multiply">
<path d="M0 5.83301V27.3726C0 34.9688 3.84972 42.1262 10.2997 46.4813L159.189 141.613C168.983 148.264 182.051 148.264 191.844 141.613L340.7 46.5151C347.15 42.1262 351 35.0026 351 27.4063V5.83301H0Z" fill="#F2F2F6"/>
</g>
<path d="M0 0V21.202C0 28.6969 3.84972 35.6855 10.2997 40.0069L159.189 139.332C168.982 145.848 182.051 145.848 191.844 139.332L340.734 40.0069C347.184 35.7192 351.034 28.6969 351.034 21.202V0H0Z" fill="#F8F8FA"/>
</g>
<defs>
<clipPath id="clip0_55_1716">
<rect width="351" height="221" rx="7" fill="white"/>
</clipPath>
</defs>
</svg>
