<svg width="32" height="32" viewBox="0 0 32 32" fill="none" xmlns="http://www.w3.org/2000/svg">
<mask id="mask0_234_375" style="mask-type:alpha" maskUnits="userSpaceOnUse" x="0" y="0" width="32" height="32">
<rect width="32" height="32" fill="#D9D9D9"/>
</mask>
<g mask="url(#mask0_234_375)">
<path d="M8.47692 17.0001L12.9076 21.4308C13.0923 21.6154 13.1867 21.8475 13.1909 22.1271C13.1951 22.4064 13.1007 22.6428 12.9076 22.8361C12.7145 23.0292 12.4803 23.1258 12.2049 23.1258C11.9298 23.1258 11.6957 23.0292 11.5026 22.8361L5.51025 16.8438C5.38536 16.7189 5.29736 16.5872 5.24625 16.4488C5.19492 16.3103 5.16925 16.1608 5.16925 16.0001C5.16925 15.8394 5.19492 15.6899 5.24625 15.5514C5.29736 15.413 5.38536 15.2813 5.51025 15.1564L11.5026 9.16408C11.6873 8.97964 11.9193 8.8852 12.1986 8.88075C12.4781 8.87653 12.7145 8.97097 12.9076 9.16408C13.1007 9.35742 13.1973 9.59164 13.1973 9.86675C13.1973 10.1419 13.1007 10.3761 12.9076 10.5694L8.47692 15.0001H26.3332C26.617 15.0001 26.8546 15.0959 27.0459 15.2874C27.2375 15.4788 27.3333 15.7163 27.3333 16.0001C27.3333 16.2839 27.2375 16.5214 27.0459 16.7128C26.8546 16.9043 26.617 17.0001 26.3332 17.0001H8.47692Z" fill="#1A1A1A"/>
</g>
</svg>
