<svg width="241" height="241" viewBox="0 0 241 241" fill="none" xmlns="http://www.w3.org/2000/svg">
<mask id="mask0_380_7300" style="mask-type:alpha" maskUnits="userSpaceOnUse" x="0" y="0" width="241" height="241">
<circle cx="120.5" cy="120.5" r="120" fill="#D9D9D9"/>
</mask>
<g mask="url(#mask0_380_7300)">
<path d="M122.32 169.292H122.32H122.319C88.5411 169.292 61.1582 215.901 61.1582 261.966C61.1582 308.03 71.7235 319.621 122.32 319.621H122.321H122.322C172.92 319.621 183.481 308.03 183.481 261.966C183.481 215.901 156.098 169.292 122.32 169.292Z" fill="#DCB099"/>
<path d="M122.698 197.423H122.697H122.696C100.363 197.423 82.2578 227.391 82.2578 257.008C82.2578 286.625 89.2418 318.742 122.696 318.742H122.697H122.698C156.153 318.742 163.137 286.625 163.137 257.008C163.137 227.391 145.031 197.423 122.698 197.423Z" fill="#FFDBC8"/>
<path d="M155.85 177C155.85 177 162.224 179.527 163.213 184.473C164.202 189.418 167.948 199.857 168.327 202.824C168.707 205.791 166.729 211.505 157.388 213.374C148.048 215.242 137.84 216.78 121.625 216.78C105.41 216.78 95.202 215.242 85.8614 213.374C76.5207 211.505 74.5427 205.791 74.9225 202.824C75.3022 199.857 79.0482 189.418 80.0372 184.473C81.0262 179.527 87.3998 177 87.3998 177H155.85Z" fill="#FA191D"/>
<path d="M84.2301 215.946C93.5708 217.814 93.7148 218.846 109.929 218.846C127.072 214.89 123.152 208.889 119.16 204.78C112.569 197.996 95.6457 192.43 82.9541 188.083C78.578 186.584 73.8334 189.517 73.3338 194.116L72.1273 205.22C71.2477 210.495 74.8895 214.078 84.2301 215.946Z" fill="#FA191D"/>
<path d="M170.305 195.028C170.177 193.678 169.747 192.202 169.171 190.689C166.978 184.926 159.727 182.204 154.308 185.145C145.108 190.139 134.38 197.258 131.375 202.481C127.074 209.958 129.476 212.517 131.214 212.862C144.678 211.59 153.032 209.512 160.641 207.228C168.25 204.944 170.762 199.864 170.305 195.028Z" fill="#FA191D"/>
<path d="M100.63 227.235C93.2627 224.377 99.1601 214.385 103.03 209.745C107.067 203.744 113.356 204.408 118.106 206.45C121.144 207.756 122.754 210.944 122.766 214.252C122.785 219.172 122.434 225.301 121.055 228.613C118.617 234.465 109.839 230.808 100.63 227.235Z" fill="url(#paint0_linear_380_7300)"/>
<path opacity="0.2" d="M104.615 222.424L103.48 225.782M108.919 223.821L107.785 227.179M113.655 225.134L112.521 228.491" stroke="#330506" stroke-width="2.63736" stroke-linecap="round" stroke-linejoin="round"/>
<path d="M143.622 224.414C150.11 219.902 142.027 211.578 137.174 207.979C131.838 203.096 125.882 205.221 121.746 208.323C119.1 210.308 118.286 213.785 119.052 217.003C120.192 221.79 121.975 227.664 124.095 230.558C127.841 235.672 135.512 230.052 143.622 224.414Z" fill="url(#paint1_linear_380_7300)"/>
<path opacity="0.2" d="M138.616 220.675L140.508 223.671M134.761 223.046L136.654 226.042M130.467 225.436L132.359 228.432" stroke="#330506" stroke-width="2.63736" stroke-linecap="round" stroke-linejoin="round"/>
<path opacity="0.6" d="M76.8157 194.736C75.4278 193.348 77.783 190.591 79.5575 189.274C79.7237 189.151 80.0414 189.496 80.0694 189.701C80.5075 192.915 97.2207 198.601 109.395 202.168C110.339 202.444 110.183 203.75 109.2 203.763C90.5496 203.998 78.839 196.759 76.8157 194.736Z" fill="#DB1619"/>
<path d="M201.219 74.9997C176.938 75.8452 167.628 96.2274 166.006 106.564C164.963 114.714 165.087 129.978 173.928 125.831C208.354 109.879 208.564 87.3904 203.879 76.6276C203.424 75.5828 202.358 74.96 201.219 74.9997Z" fill="#DCB099"/>
<path d="M26.8307 107.934C41.209 94.7944 64.3549 100.471 74.407 105.118C80.4055 109.168 87.356 119.141 67.1696 126.634C36.163 135.378 26.7647 120.886 25.6267 111.069C25.4903 109.892 25.9562 108.734 26.8307 107.934Z" fill="#DCB099"/>
<path d="M176.709 140.5C176.709 172.909 151.575 199.181 120.57 199.181C89.5657 199.181 64.4316 172.909 64.4316 140.5C64.4316 108.091 89.5657 81.8187 120.57 81.8187C151.575 81.8187 176.709 108.091 176.709 140.5Z" fill="#DCB099"/>
<path d="M99.6228 126.761C90.8498 119.442 83.7778 103.115 82.6055 97.2713C92.9196 84.5962 112.213 81.6882 120.57 81.8186C143.417 81.8186 158.743 95.7717 163.55 102.748C160.847 109.044 153.27 121.519 143 127.845C132.692 134.194 126.575 140.044 128.236 160.286L115.743 160.647C114.668 152.364 114.57 139.231 99.6228 126.761Z" fill="#FFDBC8"/>
<path fill-rule="evenodd" clip-rule="evenodd" d="M52.3999 114.763C52.0933 116.35 53.1322 117.853 54.7203 118.119L62.9856 118.051C65.289 118.032 65.7458 114.754 63.5196 114.219L55.8306 112.371C54.2425 112.105 52.7065 113.176 52.3999 114.763Z" fill="#FFDBC8"/>
<path fill-rule="evenodd" clip-rule="evenodd" d="M181.513 104.879C182.668 105.841 182.805 107.535 181.818 108.661L175.827 113.478C174.158 114.821 171.899 112.73 173.187 111.034L177.634 105.177C178.621 104.05 180.357 103.917 181.513 104.879Z" fill="#FFDBC8"/>
<ellipse opacity="0.16" cx="155.675" cy="159.033" rx="10.4904" ry="5.75444" transform="rotate(-8.77374 155.675 159.033)" fill="#D35242"/>
<ellipse opacity="0.16" cx="10.4904" cy="5.75444" rx="10.4904" ry="5.75444" transform="matrix(-0.988298 -0.152533 -0.152533 0.988298 98.5723 154.835)" fill="#D35242"/>
<ellipse cx="121.254" cy="169.548" rx="14.7681" ry="12.8121" fill="#1A1A1A"/>
<ellipse cx="118.908" cy="168.374" rx="7.72637" ry="6.74835" fill="white"/>
<path d="M135.564 110.708C135.789 106.807 133.324 103.369 129.979 101.35C128.177 100.262 126.158 99.1804 124.403 98.575C121.922 97.7192 119.69 99.8612 120.836 102.222C120.872 102.298 120.895 102.34 120.895 102.34C112.323 99.7991 104.046 102.144 104.705 104.708C105.364 107.273 113.716 107.712 113.716 107.712C113.716 107.712 104.051 112.665 106.463 116.284C108.221 118.921 118.257 115.112 118.257 115.112C114.521 120.606 115.401 125.002 117.232 125.002C119.064 125.002 124.118 122.364 128.367 116.43C128.367 116.43 128.148 121.046 130.712 120.386C132.636 119.892 135.249 116.179 135.564 110.708Z" fill="#DCB099"/>
<circle cx="99.9659" cy="145.966" r="5.96593" fill="#1A1A1A"/>
<circle cx="141.898" cy="145.966" r="5.96593" fill="#1A1A1A"/>
<path d="M153.044 80.3288L163.513 81.4318M153.044 80.3288C150.075 74.5477 147.093 66.2231 147.568 59.6729M153.044 80.3288C151.176 82.7906 146.472 88.2418 142.604 90.3516M165.021 49.995C152.496 47.7386 148.074 52.7005 147.568 59.6729M147.568 59.6729C141.384 61.0755 129.191 59.5046 129.885 42" stroke="url(#paint2_radial_380_7300)" stroke-width="11.4286" stroke-linecap="round" stroke-linejoin="round"/>
<path d="M87.9778 80.3288L77.5081 81.4318M87.9778 80.3288C90.9466 74.5477 93.9286 66.2231 93.4535 59.6729M87.9778 80.3288C89.846 82.7906 94.5494 88.2418 98.4176 90.3516M76 49.995C88.5251 47.7386 92.9478 52.7005 93.4535 59.6729M93.4535 59.6729C99.637 61.0755 111.83 59.5046 111.136 42" stroke="url(#paint3_radial_380_7300)" stroke-width="11.4286" stroke-linecap="round" stroke-linejoin="round"/>
</g>
<defs>
<linearGradient id="paint0_linear_380_7300" x1="106.725" y1="203.966" x2="99.6923" y2="227.263" gradientUnits="userSpaceOnUse">
<stop stop-color="#FA191E"/>
<stop offset="1" stop-color="#D91619"/>
</linearGradient>
<linearGradient id="paint1_linear_380_7300" x1="122.414" y1="206.301" x2="148.24" y2="245.727" gradientUnits="userSpaceOnUse">
<stop stop-color="#FA191E"/>
<stop offset="1" stop-color="#D91619"/>
</linearGradient>
<radialGradient id="paint2_radial_380_7300" cx="0" cy="0" r="1" gradientUnits="userSpaceOnUse" gradientTransform="translate(136.89 66.6154) rotate(94.4339) scale(68.1609 92.7239)">
<stop offset="0.25" stop-color="#522D29"/>
<stop offset="1" stop-color="#EC6466"/>
</radialGradient>
<radialGradient id="paint3_radial_380_7300" cx="0" cy="0" r="1" gradientUnits="userSpaceOnUse" gradientTransform="translate(108.527 66.6154) rotate(89.2633) scale(67.9625 92.4541)">
<stop offset="0.25" stop-color="#522D29"/>
<stop offset="1" stop-color="#EC6466"/>
</radialGradient>
</defs>
</svg>
