<svg width="241" height="241" viewBox="0 0 241 241" fill="none" xmlns="http://www.w3.org/2000/svg">
<mask id="mask0_380_7286" style="mask-type:alpha" maskUnits="userSpaceOnUse" x="0" y="0" width="241" height="241">
<circle cx="120.5" cy="120.5" r="120" fill="#D9D9D9"/>
</mask>
<g mask="url(#mask0_380_7286)">
<path d="M122.32 169.291H122.32H122.319C88.5411 169.291 61.1582 215.9 61.1582 261.966C61.1582 308.03 71.7235 319.621 122.32 319.621H122.321H122.322C172.92 319.621 183.481 308.03 183.481 261.966C183.481 215.9 156.098 169.291 122.32 169.291Z" fill="#DCB099"/>
<path d="M122.698 197.423H122.697H122.696C100.363 197.423 82.2578 227.39 82.2578 257.008C82.2578 286.625 89.2418 318.742 122.696 318.742H122.697H122.698C156.153 318.742 163.137 286.625 163.137 257.008C163.137 227.39 145.031 197.423 122.698 197.423Z" fill="#FFDBC8"/>
<path d="M155.85 177C155.85 177 162.224 179.527 163.213 184.473C164.202 189.418 167.948 199.857 168.327 202.824C168.707 205.791 166.729 211.505 157.388 213.374C148.048 215.242 137.84 216.78 121.625 216.78C105.41 216.78 95.202 215.242 85.8614 213.374C76.5207 211.505 74.5427 205.791 74.9225 202.824C75.3022 199.857 79.0482 189.418 80.0372 184.473C81.0262 179.527 87.3998 177 87.3998 177H155.85Z" fill="#B9368A"/>
<path d="M84.2301 216.011C93.5708 217.879 93.7148 218.912 109.929 218.912C127.072 214.956 123.152 208.954 119.16 204.846C112.569 198.061 95.6457 192.495 82.9541 188.148C78.578 186.649 73.8334 189.583 73.3338 194.181L72.1273 205.285C71.2477 210.56 74.8895 214.143 84.2301 216.011Z" fill="#B9368A"/>
<path d="M170.305 195.028C170.177 193.678 169.747 192.202 169.171 190.689C166.978 184.926 159.727 182.204 154.308 185.146C145.108 190.139 134.38 197.258 131.375 202.481C127.074 209.958 129.476 212.517 131.214 212.862C144.678 211.59 153.032 209.512 160.641 207.228C168.25 204.944 170.762 199.864 170.305 195.028Z" fill="#B9368A"/>
<path d="M100.63 227.235C93.2627 224.377 99.1601 214.385 103.03 209.745C107.067 203.743 113.356 204.407 118.106 206.45C121.144 207.756 122.754 210.944 122.766 214.251C122.785 219.172 122.434 225.301 121.055 228.612C118.617 234.464 109.839 230.808 100.63 227.235Z" fill="url(#paint0_linear_380_7286)"/>
<path opacity="0.2" d="M104.615 222.424L103.48 225.782M108.919 223.821L107.785 227.179M113.655 225.134L112.521 228.491" stroke="#330506" stroke-width="2.63736" stroke-linecap="round" stroke-linejoin="round"/>
<path d="M143.624 224.413C150.112 219.901 142.029 211.577 137.176 207.978C131.84 203.095 125.884 205.22 121.748 208.322C119.102 210.307 118.288 213.784 119.054 217.002C120.194 221.789 121.977 227.663 124.097 230.557C127.843 235.671 135.514 230.051 143.624 224.413Z" fill="url(#paint1_linear_380_7286)"/>
<path opacity="0.2" d="M138.62 220.674L140.512 223.67M134.765 223.045L136.657 226.041M130.471 225.435L132.363 228.431" stroke="#330506" stroke-width="2.63736" stroke-linecap="round" stroke-linejoin="round"/>
<path d="M76.8157 194.736C75.4278 193.348 77.783 190.591 79.5575 189.274C79.7237 189.151 80.0414 189.496 80.0694 189.701C80.5075 192.915 97.2207 198.601 109.395 202.168C110.339 202.444 110.183 203.75 109.2 203.763C90.5496 203.998 78.839 196.759 76.8157 194.736Z" fill="#A83483"/>
<path d="M201.219 74.9996C176.938 75.845 167.628 96.2273 166.006 106.563C164.963 114.714 165.087 129.978 173.928 125.83C208.354 109.879 208.564 87.3903 203.879 76.6275C203.424 75.5827 202.358 74.9599 201.219 74.9996Z" fill="#DCB099"/>
<path d="M26.8307 107.934C41.209 94.7942 64.3549 100.471 74.407 105.118C80.4055 109.167 87.356 119.141 67.1696 126.634C36.163 135.378 26.7647 120.886 25.6267 111.069C25.4903 109.892 25.9562 108.733 26.8307 107.934Z" fill="#DCB099"/>
<path d="M176.709 140.5C176.709 172.909 151.575 199.181 120.57 199.181C89.5657 199.181 64.4316 172.909 64.4316 140.5C64.4316 108.091 89.5657 81.8186 120.57 81.8186C151.575 81.8186 176.709 108.091 176.709 140.5Z" fill="#DCB099"/>
<path d="M99.6228 126.76C90.8498 119.441 83.7778 103.115 82.6055 97.2711C92.9196 84.5959 112.213 81.6879 120.57 81.8183C143.417 81.8183 158.743 95.7715 163.55 102.748C160.847 109.043 153.27 121.519 143 127.845C132.692 134.194 126.575 140.044 128.236 160.285L115.743 160.647C114.668 152.364 114.57 139.231 99.6228 126.76Z" fill="#FFDBC8"/>
<path fill-rule="evenodd" clip-rule="evenodd" d="M52.3999 114.763C52.0933 116.35 53.1322 117.853 54.7203 118.119L62.9856 118.051C65.289 118.032 65.7458 114.754 63.5196 114.219L55.8306 112.371C54.2425 112.104 52.7065 113.175 52.3999 114.763Z" fill="#FFDBC8"/>
<path fill-rule="evenodd" clip-rule="evenodd" d="M181.513 104.879C182.668 105.841 182.805 107.534 181.818 108.661L175.827 113.478C174.158 114.82 171.899 112.73 173.187 111.034L177.634 105.177C178.621 104.05 180.357 103.917 181.513 104.879Z" fill="#FFDBC8"/>
<ellipse opacity="0.16" cx="155.675" cy="159.032" rx="10.4904" ry="5.75444" transform="rotate(-8.77374 155.675 159.032)" fill="#D35242"/>
<ellipse opacity="0.16" cx="10.4904" cy="5.75444" rx="10.4904" ry="5.75444" transform="matrix(-0.988298 -0.152533 -0.152533 0.988298 98.5723 154.834)" fill="#D35242"/>
<ellipse cx="121.254" cy="169.547" rx="14.7681" ry="12.8121" fill="#1A1A1A"/>
<ellipse cx="118.908" cy="168.374" rx="7.72637" ry="6.74835" fill="white"/>
<path d="M135.564 110.708C135.789 106.807 133.324 103.369 129.979 101.35C128.177 100.262 126.158 99.1802 124.403 98.5748C121.922 97.719 119.69 99.8609 120.836 102.222C120.872 102.298 120.895 102.34 120.895 102.34C112.323 99.7989 104.046 102.143 104.705 104.708C105.364 107.272 113.716 107.712 113.716 107.712C113.716 107.712 104.051 112.665 106.463 116.283C108.221 118.921 118.257 115.111 118.257 115.111C114.521 120.606 115.401 125.002 117.232 125.002C119.064 125.002 124.118 122.364 128.367 116.43C128.367 116.43 128.148 121.045 130.712 120.386C132.636 119.892 135.249 116.179 135.564 110.708Z" fill="#DCB099"/>
<circle cx="99.9659" cy="145.966" r="5.96593" fill="#1A1A1A"/>
<circle cx="141.898" cy="145.966" r="5.96593" fill="#1A1A1A"/>
<path d="M100.22 90.1755C95.8878 88.7721 92.7171 86.4836 88.495 80.6281C87.2911 78.9584 86.2945 77.1183 85.6208 75.1136M115.306 58.8875C111.887 55.4324 108.278 53.4145 104.795 52.5276M85.6208 75.1136C84.9076 72.9912 84.5564 70.6842 84.7044 68.1999C84.7678 67.135 84.923 66.0374 85.1807 64.9077C85.461 63.6794 85.8625 62.4131 86.3992 61.1097C87.5373 58.3459 89.559 55.9963 92.1419 54.374C95.6088 52.1962 100.087 51.3286 104.795 52.5276M85.6208 75.1136L75.0117 76.2659M104.795 52.5276L108.591 43.426" stroke="url(#paint2_radial_380_7286)" stroke-width="11.4286" stroke-linecap="round" stroke-linejoin="round"/>
<path d="M145.822 93.1098C148.561 92.2258 152.269 90.4089 155.7 87.7231M163.328 62.5372C163.868 63.8422 164.271 65.11 164.553 66.3398C165.416 70.1092 165.134 73.5222 164.11 76.5582M163.328 62.5372C162.185 59.7699 160.153 57.4176 157.558 55.7932C154.074 53.6128 149.575 52.7442 144.844 53.9446C141.344 54.8326 137.717 56.853 134.281 60.3122M163.328 62.5372L176.141 58.6761M164.11 76.5582C163.5 78.3694 162.625 80.0465 161.571 81.5849M164.11 76.5582L161.571 81.5849M161.571 81.5849C159.937 83.9692 157.875 86.0207 155.7 87.7231M155.7 87.7231L147.68 81.5849" stroke="url(#paint3_radial_380_7286)" stroke-width="11.4286" stroke-linecap="round" stroke-linejoin="round"/>
</g>
<defs>
<linearGradient id="paint0_linear_380_7286" x1="106.725" y1="203.966" x2="99.6923" y2="227.263" gradientUnits="userSpaceOnUse">
<stop stop-color="#B9368A"/>
<stop offset="1" stop-color="#7D2E6D"/>
</linearGradient>
<linearGradient id="paint1_linear_380_7286" x1="122.416" y1="206.3" x2="148.242" y2="245.726" gradientUnits="userSpaceOnUse">
<stop stop-color="#B9368A"/>
<stop offset="1" stop-color="#7D2E6D"/>
</linearGradient>
<radialGradient id="paint2_radial_380_7286" cx="0" cy="0" r="1" gradientUnits="userSpaceOnUse" gradientTransform="translate(107.33 71.1183) rotate(90) scale(60.6593 80.0461)">
<stop stop-color="#522D29"/>
<stop offset="1" stop-color="#EC6466"/>
</radialGradient>
<radialGradient id="paint3_radial_380_7286" cx="0" cy="0" r="1" gradientUnits="userSpaceOnUse" gradientTransform="translate(147.331 69.7998) rotate(84.144) scale(51.6984 65.3438)">
<stop stop-color="#522D29"/>
<stop offset="1" stop-color="#EC6466"/>
</radialGradient>
</defs>
</svg>
