<svg width="241" height="241" viewBox="0 0 241 241" fill="none" xmlns="http://www.w3.org/2000/svg">
<mask id="mask0_380_7292" style="mask-type:alpha" maskUnits="userSpaceOnUse" x="0" y="0" width="241" height="241">
<circle cx="120.5" cy="120.5" r="120" fill="#D9D9D9"/>
</mask>
<g mask="url(#mask0_380_7292)">
<path d="M122.32 169.291H122.32H122.319C88.5411 169.291 61.1582 215.9 61.1582 261.965C61.1582 308.029 71.7235 319.621 122.32 319.621H122.321H122.322C172.92 319.621 183.481 308.029 183.481 261.965C183.481 215.9 156.098 169.291 122.32 169.291Z" fill="#F5FCFF"/>
<path d="M122.698 197.423H122.697H122.696C100.363 197.423 82.2578 227.39 82.2578 257.008C82.2578 286.624 89.2418 318.741 122.696 318.741H122.697H122.698C156.153 318.741 163.137 286.624 163.137 257.008C163.137 227.39 145.031 197.423 122.698 197.423Z" fill="#BEDBEA"/>
<path d="M155.85 177C155.85 177 162.224 179.527 163.213 184.473C164.202 189.418 167.948 199.857 168.327 202.824C168.707 205.791 166.729 211.505 157.388 213.374C148.048 215.242 137.84 216.78 121.625 216.78C105.41 216.78 95.202 215.242 85.8614 213.374C76.5207 211.505 74.5427 205.791 74.9225 202.824C75.3022 199.857 79.0482 189.418 80.0372 184.473C81.0262 179.527 87.3998 177 87.3998 177H155.85Z" fill="#B9368A"/>
<path d="M84.2301 216.011C93.5708 217.879 93.7148 218.911 109.929 218.911C127.072 214.955 123.152 208.954 119.16 204.846C112.569 198.061 95.6457 192.495 82.9541 188.148C78.578 186.649 73.8334 189.583 73.3338 194.181L72.1273 205.285C71.2477 210.56 74.8895 214.143 84.2301 216.011Z" fill="#B9368A"/>
<path d="M170.305 195.028C170.177 193.678 169.747 192.202 169.171 190.689C166.978 184.926 159.727 182.204 154.308 185.146C145.108 190.139 134.38 197.258 131.375 202.481C127.074 209.958 129.476 212.517 131.214 212.862C144.678 211.59 153.032 209.512 160.641 207.228C168.25 204.944 170.762 199.864 170.305 195.028Z" fill="#B9368A"/>
<path d="M100.63 227.235C93.2627 224.377 99.1601 214.385 103.03 209.745C107.067 203.744 113.356 204.408 118.106 206.45C121.144 207.756 122.754 210.944 122.766 214.252C122.785 219.172 122.434 225.301 121.055 228.613C118.617 234.465 109.839 230.808 100.63 227.235Z" fill="url(#paint0_linear_380_7292)"/>
<path opacity="0.2" d="M104.615 222.424L103.48 225.782M108.919 223.821L107.785 227.179M113.655 225.134L112.521 228.491" stroke="#330506" stroke-width="2.63736" stroke-linecap="round" stroke-linejoin="round"/>
<path d="M143.624 224.413C150.112 219.902 142.029 211.577 137.176 207.978C131.84 203.095 125.884 205.22 121.748 208.323C119.102 210.307 118.288 213.785 119.054 217.002C120.194 221.789 121.977 227.663 124.097 230.557C127.843 235.671 135.514 230.052 143.624 224.413Z" fill="url(#paint1_linear_380_7292)"/>
<path opacity="0.2" d="M138.62 220.674L140.512 223.67M134.765 223.045L136.657 226.041M130.471 225.435L132.363 228.431" stroke="#330506" stroke-width="2.63736" stroke-linecap="round" stroke-linejoin="round"/>
<path d="M76.8157 194.736C75.4278 193.348 77.783 190.591 79.5575 189.274C79.7237 189.151 80.0414 189.496 80.0694 189.701C80.5075 192.915 97.2207 198.601 109.395 202.168C110.339 202.444 110.183 203.75 109.2 203.763C90.5496 203.998 78.839 196.759 76.8157 194.736Z" fill="#A83483"/>
<path d="M201.219 74.9996C176.938 75.845 167.628 96.2273 166.006 106.563C164.963 114.714 165.087 129.978 173.928 125.83C208.354 109.879 208.564 87.3903 203.879 76.6275C203.424 75.5827 202.358 74.9599 201.219 74.9996Z" fill="#F5FCFF"/>
<path d="M26.8307 107.934C41.209 94.7942 64.3549 100.471 74.407 105.118C80.4055 109.167 87.356 119.141 67.1696 126.634C36.163 135.378 26.7647 120.886 25.6267 111.069C25.4903 109.892 25.9562 108.733 26.8307 107.934Z" fill="#F5FCFF"/>
<path d="M176.709 140.5C176.709 172.909 151.575 199.181 120.57 199.181C89.5657 199.181 64.4316 172.909 64.4316 140.5C64.4316 108.091 89.5657 81.8186 120.57 81.8186C151.575 81.8186 176.709 108.091 176.709 140.5Z" fill="#F5FCFF"/>
<path d="M99.6228 126.76C90.8498 119.441 83.7778 103.115 82.6055 97.2712C92.9196 84.596 112.213 81.6881 120.57 81.8185C143.417 81.8185 158.743 95.7716 163.55 102.748C160.847 109.044 153.27 121.519 143 127.845C132.692 134.194 126.575 140.044 128.236 160.286L115.743 160.647C114.668 152.364 114.57 139.231 99.6228 126.76Z" fill="#BEDBEA"/>
<path fill-rule="evenodd" clip-rule="evenodd" d="M52.3999 114.763C52.0933 116.35 53.1322 117.853 54.7203 118.119L62.9856 118.051C65.289 118.032 65.7458 114.754 63.5196 114.219L55.8306 112.371C54.2425 112.105 52.7065 113.176 52.3999 114.763Z" fill="#BEDBEA"/>
<path fill-rule="evenodd" clip-rule="evenodd" d="M181.513 104.879C182.668 105.841 182.805 107.535 181.818 108.661L175.827 113.478C174.158 114.821 171.899 112.73 173.187 111.034L177.634 105.177C178.621 104.05 180.357 103.917 181.513 104.879Z" fill="#BEDBEA"/>
<ellipse opacity="0.16" cx="155.675" cy="159.032" rx="10.4904" ry="5.75444" transform="rotate(-8.77374 155.675 159.032)" fill="#B9368A"/>
<ellipse opacity="0.16" cx="10.4904" cy="5.75444" rx="10.4904" ry="5.75444" transform="matrix(-0.988298 -0.152533 -0.152533 0.988298 98.5723 154.835)" fill="#B9368A"/>
<ellipse cx="121.254" cy="169.547" rx="14.7681" ry="12.8121" fill="#1A1A1A"/>
<ellipse cx="118.908" cy="168.374" rx="7.72637" ry="6.74835" fill="white"/>
<path d="M135.564 110.708C135.789 106.807 133.324 103.369 129.979 101.35C128.177 100.262 126.158 99.1803 124.403 98.5749C121.922 97.7191 119.69 99.8611 120.836 102.222C120.872 102.298 120.895 102.34 120.895 102.34C112.323 99.799 104.046 102.144 104.705 104.708C105.364 107.272 113.716 107.712 113.716 107.712C113.716 107.712 104.051 112.665 106.463 116.283C108.221 118.921 118.257 115.112 118.257 115.112C114.521 120.606 115.401 125.002 117.232 125.002C119.064 125.002 124.118 122.364 128.367 116.43C128.367 116.43 128.148 121.046 130.712 120.386C132.636 119.892 135.249 116.179 135.564 110.708Z" fill="#F5FCFF"/>
<circle cx="99.9659" cy="145.966" r="5.96593" fill="#1A1A1A"/>
<circle cx="141.898" cy="145.966" r="5.96593" fill="#1A1A1A"/>
<path d="M146.217 79.6108L156.898 80.6343M146.217 79.6108C143.188 74.2469 131.033 63.0091 131.518 56.9315C144.672 60.4453 174.34 64.9742 161.948 39.3625M146.217 79.6108C145.268 82.605 144.251 85.6789 137.218 89.8987" stroke="url(#paint2_radial_380_7292)" stroke-width="11.4286" stroke-linecap="round" stroke-linejoin="round"/>
<path d="M97.4494 79.6108L86.7681 80.6343M97.4494 79.6108C100.478 74.2469 112.633 63.0091 112.148 56.9315C98.9944 60.4453 69.3264 64.9742 81.7178 39.3625M97.4494 79.6108C98.3977 82.605 99.4152 85.6789 106.448 89.8987" stroke="url(#paint3_radial_380_7292)" stroke-width="11.4286" stroke-linecap="round" stroke-linejoin="round"/>
</g>
<defs>
<linearGradient id="paint0_linear_380_7292" x1="106.725" y1="203.966" x2="99.6923" y2="227.263" gradientUnits="userSpaceOnUse">
<stop stop-color="#B9368A"/>
<stop offset="1" stop-color="#7D2E6D"/>
</linearGradient>
<linearGradient id="paint1_linear_380_7292" x1="122.416" y1="206.3" x2="148.242" y2="245.726" gradientUnits="userSpaceOnUse">
<stop stop-color="#B9368A"/>
<stop offset="1" stop-color="#7D2E6D"/>
</linearGradient>
<radialGradient id="paint2_radial_380_7292" cx="0" cy="0" r="1" gradientUnits="userSpaceOnUse" gradientTransform="translate(159.635 78.0439) rotate(124.056) scale(114.6 250.291)">
<stop stop-color="#272C2F"/>
<stop offset="1" stop-color="#466786"/>
</radialGradient>
<radialGradient id="paint3_radial_380_7292" cx="0" cy="0" r="1" gradientUnits="userSpaceOnUse" gradientTransform="translate(84.0306 78.0439) rotate(55.9442) scale(114.6 250.291)">
<stop stop-color="#272C2F"/>
<stop offset="1" stop-color="#466786"/>
</radialGradient>
</defs>
</svg>
