<svg width="32" height="32" viewBox="0 0 32 32" fill="none" xmlns="http://www.w3.org/2000/svg">
<path d="M29.3318 16C29.3318 16.3536 29.1913 16.6928 28.9413 16.9428C28.6912 17.1929 28.3521 17.3333 27.9984 17.3333H7.21711L14.2744 24.3907C14.4018 24.5137 14.5034 24.6608 14.5732 24.8235C14.6431 24.9861 14.6799 25.1611 14.6814 25.3381C14.683 25.5152 14.6492 25.6907 14.5822 25.8546C14.5152 26.0185 14.4162 26.1673 14.291 26.2925C14.1658 26.4177 14.0169 26.5167 13.8531 26.5838C13.6892 26.6508 13.5136 26.6845 13.3366 26.683C13.1595 26.6815 12.9846 26.6447 12.8219 26.5748C12.6592 26.5049 12.5121 26.4034 12.3891 26.276L3.05578 16.9427C2.93161 16.8188 2.8331 16.6717 2.76588 16.5097C2.69866 16.3477 2.66406 16.174 2.66406 15.9987C2.66406 15.8233 2.69866 15.6496 2.76588 15.4876C2.8331 15.3257 2.93161 15.1785 3.05578 15.0547L12.3891 5.72134C12.5121 5.59399 12.6592 5.49241 12.8219 5.42253C12.9846 5.35266 13.1595 5.31587 13.3366 5.31434C13.5136 5.3128 13.6892 5.34653 13.8531 5.41357C14.0169 5.48062 14.1658 5.57962 14.291 5.70481C14.4162 5.83 14.5152 5.97887 14.5822 6.14273C14.6492 6.30659 14.683 6.48217 14.6814 6.6592C14.6799 6.83624 14.6431 7.0112 14.5732 7.17388C14.5034 7.33655 14.4018 7.48367 14.2744 7.60667L7.21711 14.6667H27.9984C28.3521 14.6667 28.6912 14.8071 28.9413 15.0572C29.1913 15.3072 29.3318 15.6464 29.3318 16Z" fill="#95A8A9"/>
</svg>
