<svg width="32" height="32" viewBox="0 0 32 32" fill="none" xmlns="http://www.w3.org/2000/svg">
<path d="M17.8835 16L24.9408 8.94267C25.0682 8.81967 25.1697 8.67255 25.2396 8.50987C25.3095 8.3472 25.3463 8.17224 25.3478 7.9952C25.3494 7.81816 25.3156 7.64259 25.2486 7.47873C25.1815 7.31487 25.0825 7.166 24.9573 7.04081C24.8322 6.91562 24.6833 6.81661 24.5194 6.74957C24.3556 6.68253 24.18 6.6488 24.003 6.65033C23.8259 6.65187 23.651 6.68865 23.4883 6.75853C23.3256 6.82841 23.1785 6.92999 23.0555 7.05734L15.9982 14.1147L8.94082 7.05734C8.68935 6.81446 8.35255 6.68006 8.00295 6.6831C7.65336 6.68614 7.31894 6.82637 7.07173 7.07358C6.82452 7.32079 6.68429 7.6552 6.68126 8.0048C6.67822 8.3544 6.81261 8.6912 7.05549 8.94267L14.1128 16L7.05549 23.0573C6.92814 23.1803 6.82657 23.3275 6.75669 23.4901C6.68681 23.6528 6.65003 23.8278 6.64849 24.0048C6.64695 24.1818 6.68068 24.3574 6.74773 24.5213C6.81477 24.6851 6.91377 24.834 7.03896 24.9592C7.16415 25.0844 7.31302 25.1834 7.47688 25.2504C7.64074 25.3175 7.81632 25.3512 7.99336 25.3497C8.1704 25.3481 8.34536 25.3113 8.50803 25.2415C8.6707 25.1716 8.81783 25.07 8.94082 24.9427L15.9982 17.8853L23.0555 24.9427C23.307 25.1855 23.6438 25.3199 23.9934 25.3169C24.343 25.3139 24.6774 25.1736 24.9246 24.9264C25.1718 24.6792 25.312 24.3448 25.3151 23.9952C25.3181 23.6456 25.1837 23.3088 24.9408 23.0573L17.8835 16Z" fill="#95A8A9"/>
</svg>
